<svg id="Component_8" data-name="Component 8" xmlns="http://www.w3.org/2000/svg" width="38.47" height="40" viewBox="0 0 38.47 40">
  <path id="Exclusion_6" data-name="Exclusion 6" d="M22.713,40H15.756a1.3,1.3,0,0,1-1.286-1.09l-.877-5.263a14.675,14.675,0,0,1-3.357-1.937l-5,1.871a1.28,1.28,0,0,1-.458.085,1.307,1.307,0,0,1-1.128-.653L.176,26.987a1.3,1.3,0,0,1,.3-1.659l4.11-3.385A14.283,14.283,0,0,1,4.452,20a14.11,14.11,0,0,1,.135-1.943L.477,14.671a1.3,1.3,0,0,1-.3-1.659L3.654,6.988a1.309,1.309,0,0,1,1.129-.653,1.285,1.285,0,0,1,.458.084l5,1.871a14.675,14.675,0,0,1,3.357-1.937l.878-5.263A1.3,1.3,0,0,1,15.757,0h6.956A1.3,1.3,0,0,1,24,1.09l.877,5.263A14.687,14.687,0,0,1,28.233,8.29l5-1.871a1.3,1.3,0,0,1,1.587.569l3.479,6.025a1.3,1.3,0,0,1-.3,1.659l-4.11,3.386a14.145,14.145,0,0,1,0,3.886l4.11,3.386a1.306,1.306,0,0,1,.472,1.1,1.286,1.286,0,0,1-.172.562l-3.479,6.025a1.3,1.3,0,0,1-1.587.569l-5-1.871a14.687,14.687,0,0,1-3.356,1.937L24,38.91a1.376,1.376,0,0,1-.054.213A1.305,1.305,0,0,1,22.713,40ZM13.571,11.353v16.91h4.3V23.306H20.72c3.8,0,6.351-2.392,6.351-5.953a5.725,5.725,0,0,0-6.093-6Zm6.247,8.708H17.872v-5.4h1.969c1.859,0,2.883.961,2.883,2.707S21.692,20.06,19.818,20.06Z" transform="translate(0 0)" fill="#bd2a22"/>
</svg>
