<svg xmlns="http://www.w3.org/2000/svg" width="181" height="80" viewBox="0 0 181 80">
  <path id="Icon_Active_admin_setting_" data-name="Icon_Active_admin setting " d="M76-1123H-25a39.752,39.752,0,0,1-15.57-3.143,39.867,39.867,0,0,1-12.714-8.572,39.866,39.866,0,0,1-8.572-12.714A39.749,39.749,0,0,1-65-1163a39.75,39.75,0,0,1,3.143-15.57,39.869,39.869,0,0,1,8.572-12.715,39.869,39.869,0,0,1,12.714-8.573A39.749,39.749,0,0,1-25-1203H76a39.75,39.75,0,0,1,15.57,3.143,39.87,39.87,0,0,1,12.715,8.573,39.87,39.87,0,0,1,8.573,12.715A39.75,39.75,0,0,1,116-1163a39.748,39.748,0,0,1-3.143,15.57,39.867,39.867,0,0,1-8.573,12.714,39.869,39.869,0,0,1-12.715,8.572A39.753,39.753,0,0,1,76-1123Zm-41.306-24.715h0a22.085,22.085,0,0,0,4.136,4.151l-.957,7.974a1.465,1.465,0,0,0,1.094,1.6l11.591,3.106a1.565,1.565,0,0,0,.4.052,1.442,1.442,0,0,0,1.349-.888l3.158-7.384a22.881,22.881,0,0,0,5.658-1.528l6.439,4.832a1.477,1.477,0,0,0,.881.291,1.452,1.452,0,0,0,1.058-.455l8.482-8.474a1.512,1.512,0,0,0,.149-1.948l-4.833-6.42a23.76,23.76,0,0,0,.964-2.785,23.588,23.588,0,0,0,.558-2.894l7.4-3.144a1.511,1.511,0,0,0,.844-1.762l-3.109-11.578a1.507,1.507,0,0,0-1.467-1.116c-.044,0-.087,0-.129.006l-7.992.965a22.061,22.061,0,0,0-4.136-4.153l.957-7.974a1.465,1.465,0,0,0-1.094-1.6L54.5-1191.947a1.534,1.534,0,0,0-.4-.053,1.442,1.442,0,0,0-1.349.89l-3.158,7.383a22.923,22.923,0,0,0-5.658,1.528l-6.439-4.83a1.476,1.476,0,0,0-.881-.292,1.45,1.45,0,0,0-1.058.456l-8.482,8.474a1.471,1.471,0,0,0-.149,1.948l4.833,6.42a23.5,23.5,0,0,0-.964,2.786,23.811,23.811,0,0,0-.558,2.893l-7.4,3.144a1.511,1.511,0,0,0-.844,1.762l3.109,11.579a1.507,1.507,0,0,0,1.467,1.117c.044,0,.087,0,.129-.006l7.991-.964Zm-54.951-4h0a22.047,22.047,0,0,0,4.136,4.152l-.957,7.974a1.467,1.467,0,0,0,1.094,1.6l11.591,3.106a1.551,1.551,0,0,0,.4.052,1.44,1.44,0,0,0,1.349-.889l3.159-7.385a22.848,22.848,0,0,0,5.658-1.528l6.439,4.832a1.481,1.481,0,0,0,.882.291,1.447,1.447,0,0,0,1.057-.455l8.483-8.474a1.512,1.512,0,0,0,.149-1.948l-4.834-6.42a23.264,23.264,0,0,0,.964-2.786,23.582,23.582,0,0,0,.558-2.894l7.4-3.144a1.51,1.51,0,0,0,.844-1.76L25-1178.972a1.507,1.507,0,0,0-1.468-1.115c-.043,0-.087,0-.13.006l-7.992.963a22.059,22.059,0,0,0-4.135-4.151l.956-7.974a1.464,1.464,0,0,0-1.094-1.6l-11.591-3.106a1.538,1.538,0,0,0-.4-.053,1.441,1.441,0,0,0-1.348.889l-3.159,7.385a22.893,22.893,0,0,0-5.658,1.526l-6.439-4.83a1.479,1.479,0,0,0-.882-.292,1.445,1.445,0,0,0-1.056.456l-8.483,8.474a1.472,1.472,0,0,0-.149,1.948l4.833,6.42a23.594,23.594,0,0,0-.964,2.786,23.437,23.437,0,0,0-.558,2.894l-7.4,3.142a1.513,1.513,0,0,0-.845,1.762l3.11,11.578a1.506,1.506,0,0,0,1.467,1.118c.044,0,.088,0,.13-.006l7.991-.965Zm72.784.8h0a10.5,10.5,0,0,1-2.716-.359,10.43,10.43,0,0,1-6.372-4.894,10.428,10.428,0,0,1-1.053-7.965,10.517,10.517,0,0,1,10.145-7.784,10.489,10.489,0,0,1,2.715.359,10.427,10.427,0,0,1,6.372,4.894,10.43,10.43,0,0,1,1.053,7.966A10.516,10.516,0,0,1,52.527-1150.916Zm-54.952-4h0a10.494,10.494,0,0,1-2.715-.359,10.513,10.513,0,0,1-7.425-12.86,10.519,10.519,0,0,1,10.144-7.784,10.465,10.465,0,0,1,2.716.36,10.429,10.429,0,0,1,6.371,4.894,10.427,10.427,0,0,1,1.053,7.964A10.517,10.517,0,0,1-2.425-1154.915Z" transform="translate(65 1203)" fill="#fff"/>
</svg>
