<svg id="Icon_admin_-_Uhall_-_01.2022" data-name="Icon_admin - Uhall - 01.2022" xmlns="http://www.w3.org/2000/svg" width="73.094" height="76" viewBox="0 0 73.094 76">
  <path id="admin_icon_-_Uhall_-_01.2022" data-name="admin icon - Uhall - 01.2022" d="M29.809,76a2.477,2.477,0,0,1-2.315-2.069l-1.667-10a27.927,27.927,0,0,1-6.378-3.681L9.956,63.806a2.425,2.425,0,0,1-.871.161,2.479,2.479,0,0,1-2.144-1.241L.332,51.279A2.475,2.475,0,0,1,.9,48.127l7.81-6.432a26.8,26.8,0,0,1,0-7.387L.9,27.877a2.477,2.477,0,0,1-.572-3.153L6.941,13.278a2.478,2.478,0,0,1,2.144-1.241,2.455,2.455,0,0,1,.871.16l9.493,3.556a27.928,27.928,0,0,1,6.378-3.681l1.667-10A2.477,2.477,0,0,1,29.937,0H43.155a2.467,2.467,0,0,1,1.71.685h0A2.461,2.461,0,0,1,45.6,2.072l1.667,10a27.918,27.918,0,0,1,6.377,3.681L63.136,12.2a2.471,2.471,0,0,1,3.015,1.08L72.76,24.723a2.478,2.478,0,0,1-.571,3.154l-7.81,6.431a26.729,26.729,0,0,1,0,7.386l7.81,6.432a2.479,2.479,0,0,1,.9,2.085,2.451,2.451,0,0,1-.327,1.067L66.151,62.726a2.473,2.473,0,0,1-2.144,1.241,2.447,2.447,0,0,1-.871-.16l-9.493-3.555a27.95,27.95,0,0,1-6.377,3.681l-1.667,10a2.562,2.562,0,0,1-.1.407,2.453,2.453,0,0,1-.589.94V54.188a18.321,18.321,0,0,0,6.918-6.2,18.113,18.113,0,0,0-6.918-26.15V33.045L36.646,38l-8.261-4.957V21.838a18.151,18.151,0,0,0,0,32.348V75.454A2.49,2.49,0,0,0,29.809,76Z" transform="translate(0)" fill="#151ceb"/>
</svg>
