<svg xmlns="http://www.w3.org/2000/svg" width="33.044" height="33.045" viewBox="0 0 33.044 33.045">
  <defs>
    <style>
      .cls-1 {
        fill: #707070;
      }
    </style>
  </defs>
  <path id="grid_view_icon" data-name="grid view icon" class="cls-1" d="M21.174,33.045a3,3,0,0,1-3-3v-8.87a3,3,0,0,1,3-3h8.87a3,3,0,0,1,3,3v8.87a3,3,0,0,1-3,3ZM3,33.045a3,3,0,0,1-3-3v-8.87a3,3,0,0,1,3-3h8.87a3,3,0,0,1,3,3v8.87a3,3,0,0,1-3,3ZM21.174,14.871a3,3,0,0,1-3-3V3a3,3,0,0,1,3-3h8.87a3,3,0,0,1,3,3v8.87a3,3,0,0,1-3,3ZM3,14.871a3,3,0,0,1-3-3V3A3,3,0,0,1,3,0h8.87a3,3,0,0,1,3,3v8.87a3,3,0,0,1-3,3Z"/>
</svg>
