<svg xmlns="http://www.w3.org/2000/svg" width="58.363" height="60" viewBox="0 0 58.363 60">
  <defs>
    <style>
      .cls-1 {
        fill: #fff;
      }
    </style>
  </defs>
  <g id="settings_icon_inactive" data-name="settings icon inactive" transform="translate(-3925.638 -2716)">
    <path id="ic_settings_24px" class="cls-1" d="M53.749,34.94a23.378,23.378,0,0,0,.21-2.94,23.379,23.379,0,0,0-.21-2.94l6.33-4.95a1.514,1.514,0,0,0,.36-1.92l-6-10.38a1.508,1.508,0,0,0-1.83-.66l-7.47,3a21.918,21.918,0,0,0-5.07-2.94l-1.14-7.95A1.463,1.463,0,0,0,37.459,2h-12a1.463,1.463,0,0,0-1.47,1.26l-1.14,7.95a23.049,23.049,0,0,0-5.07,2.94l-7.47-3a1.463,1.463,0,0,0-1.83.66l-6,10.38a1.479,1.479,0,0,0,.36,1.92l6.33,4.95A23.792,23.792,0,0,0,8.959,32a23.792,23.792,0,0,0,.21,2.94l-6.33,4.95a1.514,1.514,0,0,0-.36,1.92l6,10.38a1.508,1.508,0,0,0,1.83.66l7.47-3a21.918,21.918,0,0,0,5.07,2.94l1.14,7.95A1.463,1.463,0,0,0,25.459,62h12a1.463,1.463,0,0,0,1.47-1.26l1.14-7.95a23.049,23.049,0,0,0,5.07-2.94l7.47,3a1.463,1.463,0,0,0,1.83-.66l6-10.38a1.514,1.514,0,0,0-.36-1.92ZM31.459,42.5A10.5,10.5,0,1,1,41.959,32,10.512,10.512,0,0,1,31.459,42.5Z" transform="translate(3923.367 2714)"/>
  </g>
</svg>
