<svg id="Component_7" data-name="Component 7" xmlns="http://www.w3.org/2000/svg" width="73.095" height="76.003" viewBox="0 0 73.095 76.003">
  <path id="Exclusion_6" data-name="Exclusion 6" d="M-1110.845,929h-13.217a2.469,2.469,0,0,1-2.444-2.072l-1.667-10a27.932,27.932,0,0,1-6.377-3.681l-9.492,3.556a2.437,2.437,0,0,1-.871.161,2.481,2.481,0,0,1-2.144-1.242l-6.61-11.446a2.471,2.471,0,0,1,.572-3.153l7.81-6.432a26.947,26.947,0,0,1-.256-3.693,26.944,26.944,0,0,1,.256-3.693l-7.81-6.432a2.471,2.471,0,0,1-.572-3.153l6.61-11.447a2.482,2.482,0,0,1,2.144-1.24,2.447,2.447,0,0,1,.871.16l9.492,3.556a27.932,27.932,0,0,1,6.377-3.682l1.668-10a2.468,2.468,0,0,1,2.443-2.072h13.217a2.47,2.47,0,0,1,1.71.684,2.461,2.461,0,0,1,.734,1.388l1.668,10a27.96,27.96,0,0,1,6.377,3.681l9.492-3.555a2.462,2.462,0,0,1,.872-.16,2.48,2.48,0,0,1,2.143,1.24l6.609,11.447a2.4,2.4,0,0,1,.169.354,2.474,2.474,0,0,1-.741,2.8l-7.81,6.432a26.945,26.945,0,0,1,.256,3.693,26.943,26.943,0,0,1-.256,3.693l7.81,6.431a2.493,2.493,0,0,1,.735,1.013,2.487,2.487,0,0,1,.163,1.072,2.454,2.454,0,0,1-.327,1.068l-6.609,11.446a2.483,2.483,0,0,1-2.143,1.241,2.451,2.451,0,0,1-.872-.16l-9.492-3.556a27.929,27.929,0,0,1-6.377,3.681l-1.668,10a2.443,2.443,0,0,1-.1.407A2.479,2.479,0,0,1-1110.845,929Zm-17.254-54.119V908h22.49v-6.953h-14.068V874.885Z" transform="translate(1154.002 -853)" fill="#151ceb"/>
</svg>
